<svg id="RBC_Logo" data-name="RBC Logo" xmlns="http://www.w3.org/2000/svg" width="50" height="57" viewBox="0 0 50 57">
  <defs>
    <style>
      .cls-1 {
        fill: #0051a5;
        stroke: #fff;
        stroke-linejoin: round;
        stroke-width: 1px;
      }

      .cls-1, .cls-2, .cls-3 {
        fill-rule: evenodd;
      }

      .cls-2 {
        fill: #fddf01;
      }

      .cls-3 {
        fill: #fff;
      }
    </style>
  </defs>
  <path class="cls-1" d="M43.324,49.254A3.258,3.258,0,0,1,41.1,52.686a54.623,54.623,0,0,1-18.933,3.3,54.632,54.632,0,0,1-18.934-3.3,3.259,3.259,0,0,1-2.225-3.432V1.01H43.324V49.254Z"/>
  <path class="cls-2" d="M12.355,30.411C6.5,26.8,4.561,25.195,4.4,22.825a5.64,5.64,0,0,1,.286-1.877l-0.552-.36a4.748,4.748,0,0,0-.722,2.453A5.707,5.707,0,0,0,4.4,26.275a13.692,13.692,0,0,0,3.822,3.619,14.4,14.4,0,0,1,4.77,5.777h0.327V33.309c3.107,1.742,5.846,3.384,7.192,6.312h0.326C20.306,36.583,18.569,34.244,12.355,30.411Zm26.988,9.214h-0.4c0-2.162-2-2.749-4.1-2.749H28.281a10.761,10.761,0,0,1,.144,3.488H28.1c-0.608-4.855-3.384-7.261-7.266-9.836v2.21H20.507A16.429,16.429,0,0,0,15.062,26.8h0c-0.57-.4-1.161-0.823-1.747-1.235v2.384H12.988c-0.91-2.364-2.563-4.128-4.918-6.227C5.527,19.459,4.5,18.1,3.9,16.548a7.3,7.3,0,0,1-.476-2.743,4.713,4.713,0,0,1,2.1-4.155v0.9a4.5,4.5,0,0,0-.889,2.722,6.025,6.025,0,0,0,.677,2.784c1.432,2.7,6.256,6.006,9.323,8.035,9.53,6.318,11.432,7.42,13.015,10.774a8.247,8.247,0,0,1,.5,1.458c1.377-.21,6.37-0.963,7.291-1.107,0.177-.026.547-0.073,0.735-0.084a7.12,7.12,0,0,0,2.124-2.078l-3.653-.278a10.923,10.923,0,0,1-.54,1.04h-0.3c0.1-.366.184-0.73,0.26-1.085l-0.932-.069v-0.2l1.01-.123a17.7,17.7,0,0,0,.3-2.89l-4.6-.258c-0.025.467-.029,0.907-0.014,1.313h-0.3c-0.1-.454-0.174-0.9-0.233-1.344l-1.008-.056V28.8l0.958-.051a20.318,20.318,0,0,1-.093-3.292l-2.69-.122a5.464,5.464,0,0,1,.351.728,8.649,8.649,0,0,1,.25,4.349H26.757a9.614,9.614,0,0,0-.711-2.974c-0.744-1.734-2.413-3.267-5.213-5.043v2.215H20.507c-0.931-2.912-3.248-4.531-6.693-6.28-2.843-1.442-3.726-3.177-3.564-5.869l0.96,0.563a4.21,4.21,0,0,0,4.247,3.95,17.959,17.959,0,0,0,3.425-.381,8.4,8.4,0,0,1,4.248-.157V14.956H22.173a3.274,3.274,0,0,1-2.054.647,3.011,3.011,0,0,1-3.244-2.962c0-2.034,1.744-2.359,3.164-2.359,0.757,0,2.019-.028,2.447-0.052a1.058,1.058,0,0,0,.711-0.218,0.857,0.857,0,0,0,.247-0.526,5.509,5.509,0,0,0,.045-0.947V7.055H16.914V9.627l-2.489-.934V8.078h1.191V7.055H11.181V4.917H9.668A1.765,1.765,0,0,0,7.862,6.562,1.562,1.562,0,0,0,9.356,8.477H9.55V9.722H9.356a3.231,3.231,0,0,1-3.329-3.28,3.557,3.557,0,0,1,3.71-3.433h3.209V5.145H25.417V8.3c0,0.531-.029,1.247-0.082,1.7a1.929,1.929,0,0,1-.784,1.4,3.119,3.119,0,0,1-1.883.406c-0.3,0-1.189-.012-2.247-0.078-1.422-.088-1.826.453-1.883,0.956a1.244,1.244,0,0,0,0,.31,2.916,2.916,0,0,1,2.678-.538c1.881,0.587,2.418.639,3.4-.123l0.1,0.219a2.487,2.487,0,0,1-.57.6h0.909v4.866l2.83-1.675h7.944l3.91,2.019a1.268,1.268,0,0,1,.756,1.01,1.82,1.82,0,0,1-.224,1.155c-0.115.192-1.027,1.668-1.51,2.458a8.37,8.37,0,0,1-.981,12.339,4.354,4.354,0,0,1,2.336,1.712ZM21.632,13.412a2.288,2.288,0,0,0-2.379.5,2.31,2.31,0,0,0,1.143.2A1.7,1.7,0,0,0,21.632,13.412Zm-0.644,7.013,3.143-1.863a4.827,4.827,0,0,0-2.11-.508,27.7,27.7,0,0,0-3.8.613C18.62,18.934,20.025,19.82,20.988,20.425Zm14.036,0.2,0.434-.6-0.674-.89,0.112-.195,1.9,1.01-0.414,1.24a8.1,8.1,0,0,1,.962.575l1.227-1.991-3.175-1.64H28.38l-5.692,3.385a15.086,15.086,0,0,1,2.753,2.325A8.566,8.566,0,0,1,32.3,20.246,8.876,8.876,0,0,1,35.023,20.623Zm-0.571,7.86a16.356,16.356,0,0,0-.342-2.8l-3.718-.168a22.6,22.6,0,0,0-.5,3.205ZM35.7,25.756a13.313,13.313,0,0,1,.071,2.657l3.683-.193a6.937,6.937,0,0,0-.69-2.324Zm-1.879-1.192a12.86,12.86,0,0,0-1.083-2.658c-0.153-.008-0.31-0.012-0.466-0.012a7.1,7.1,0,0,0-.771.059,23.4,23.4,0,0,0-.924,2.789Zm1.022-2.2a15.692,15.692,0,0,1,.634,2.115l2.252-.124A7.24,7.24,0,0,0,34.847,22.36Zm4.143,9.384a5.928,5.928,0,0,0,.478-2.008l-3.826-.216a12.948,12.948,0,0,1-.762,2.737ZM29.55,22.5A6.867,6.867,0,0,0,26.6,24.95l2.619-.134A16.959,16.959,0,0,1,29.55,22.5Z"/>
  <path class="cls-3" d="M24.69,45.213a2.347,2.347,0,0,0,2.088-2.233c0-1.119-.48-2.348-3.813-2.348h-5.62v0.089a1.661,1.661,0,0,1,.614.361,2.255,2.255,0,0,1,.526,1.65V51.05h4.658c2.563,0,4.418-.967,4.418-3.178C27.56,46.073,26.144,45.305,24.69,45.213Zm-2.4-3.589c1.192,0,2,.255,2,1.513,0,1.342-1.084,1.711-2.32,1.711H20.91V41.625h1.382Zm0.121,8.441h-1.5V45.811h1.433c1.972,0,2.727.58,2.727,2.04C25.07,49.432,24.085,50.066,22.414,50.066ZM13.2,51.05h3.036l-3.878-4.9c1.553-.41,2.719-1.251,2.719-2.778,0-1.794-1.085-2.74-3.924-2.74H5.284v0.089a1.813,1.813,0,0,1,.616.367,2.442,2.442,0,0,1,.533,1.837V51.05H8.868V46.432H9.756ZM8.868,41.625h1.641c1.365,0,2.078.4,2.078,1.829,0,1.279-.933,2.038-2.428,2.038H8.868V41.625ZM37.406,42.06a1.993,1.993,0,0,1,.853.846,0.129,0.129,0,0,0,.1.024l0.532-1.78a5.893,5.893,0,0,0-3.217-.678c-3.427,0-5.992,1.707-5.992,5.44,0,4.207,3.057,5.3,5.75,5.3a5.882,5.882,0,0,0,3.492-.788V49.2a4.248,4.248,0,0,1-2.785.816c-1.568,0-3.869-.708-3.919-4.166-0.045-3.191,1.362-4.233,3.251-4.233A3.638,3.638,0,0,1,37.406,42.06Z"/>
  <path class="cls-3" d="M47.429,55.565a2.557,2.557,0,1,1,2.589-2.556A2.569,2.569,0,0,1,47.429,55.565Zm0-4.6a2.056,2.056,0,1,0,2,2.049A2.013,2.013,0,0,0,47.429,50.96Zm0.173,0.6a0.8,0.8,0,0,1,.862.838,0.74,0.74,0,0,1-.651.791,0.782,0.782,0,0,1,.119.123c0.167,0.207.7,1.115,0.7,1.115H47.938c-0.111-.193-0.158-0.266-0.274-0.474a1.758,1.758,0,0,0-.482-0.7,0.311,0.311,0,0,0-.093-0.021v1.2h-0.57V51.559H47.6ZM47.089,52.8h0.2a0.63,0.63,0,0,0,.44-0.1,0.393,0.393,0,0,0,.111-0.289,0.334,0.334,0,0,0-.208-0.351,1.176,1.176,0,0,0-.329-0.041H47.089V52.8Z"/>
</svg>
