<svg version="1.2" xmlns="http://www.w3.org/2000/svg" viewBox="0 0 1549 1548" width="1549" height="1548"><style>.a{fill:#00a2c7}</style><path class="a" d="m1302.6 2.3c-133.5 0-246.1 112.2-246.1 245.8 0 133.5 112.6 245.7 246.1 245.7 133.5 0 246.1-112.2 246.1-245.7 0-133.6-112.6-245.8-246.1-245.8zm0 63.2c98.5 0 175.7 77.2 175.7 175.7 0 98.2-77.2 175.4-175.7 175.4-98.5 0-175.7-77.2-175.7-175.4 0-98.5 77.2-175.7 175.7-175.7z"/><path fill-rule="evenodd" class="a" d="m1419.8 990.2c-119.5 65.1-268.6 20.9-333.6-98.5-65.1-119.5-21-268.6 98.5-333.2 119.4-65.1 268.5-21 333.6 98.5 65 119.4 20.9 268.2-98.5 333.2z"/><path fill-rule="evenodd" class="a" d="m1419.4 1516.7c-119.5 65-268.6 20.9-333.6-98.6-65.1-119-20.9-268.1 98.5-333.2 119.4-64.6 268.6-20.9 333.6 98.5 65.1 119.5 20.9 268.6-98.5 333.3z"/><path class="a" d="m775.4 529.2c-133.5 0-246.1 112.2-246.1 245.7 0 133.5 112.6 245.7 246.1 245.7 133.5 0 246.1-112.2 246.1-245.7 0-133.5-112.6-245.7-246.1-245.7zm0 70.3c49.1 0 91.3 21 126.7 49.1 34.9 35 49 77.2 49 126.3 0 98.1-77.2 175.4-175.7 175.4-49.1 0-91.3-21-126.3-49.1-35.4-35-49.5-77.2-49.5-126.3-6.8-98.1 77.3-175.4 175.8-175.4z"/><path fill-rule="evenodd" class="a" d="m471.4 872.7c-54.7 124-200 179.9-324.4 125.1-124.4-55.1-180.3-200.1-125.2-324.5 55.2-124 200.1-180.3 324.5-125.1 124.4 55.1 180.3 200.1 125.1 324.5z"/><path fill-rule="evenodd" class="a" d="m999.8 346.2c-55.1 124-200.1 179.9-324.5 125.1-124.4-55.1-180.3-200-125.5-324.4 55.2-124 200.5-180 324.9-125.2 124 55.2 180.3 200.1 125.1 324.5z"/><path fill-rule="evenodd" class="a" d="m472.2 345.4c-55.1 124.4-200.1 180.3-324.5 125.2-124.4-55.2-180.3-200.1-125.1-324.1 54.8-124.4 200.1-180.3 324.5-125.2 124.3 54.8 180.3 199.8 125.1 324.1z"/><path fill-rule="evenodd" class="a" d="m998.7 1400.3c-55.2 124-200.5 179.9-324.9 125.1-124.4-55.1-180.3-200.1-125.1-324.5 55.1-124 200.1-179.9 324.4-125.1 124.4 55.1 180.3 200.1 125.6 324.5z"/><path class="a" d="m248.2 1055.6c-133.6 0-245.8 112.6-245.8 245.8 0 133.5 112.2 245.7 245.8 245.7 133.5 0 246.1-112.2 246.1-245.7 0-133.2-112.6-245.8-246.1-245.8zm0 70.4c49.4 0 91.6 20.9 126.6 49.1 35 35 49.1 77.2 49.1 126.3 0 98.5-77.2 175.7-175.7 175.7-98.2 0-175.4-77.2-175.4-175.7-7.2-98.2 77.2-175.4 175.4-175.4z"/></svg>